# xmcd CD database file
#
# Track frame offsets:
#	150
#	7723
#	30855
#	66446
#	79207
#	119917
#	172717
#	191256
#	206355
#
# Disc length: 2974 seconds
#
# Revision: 0
# Processed by: cddbd v1.5.2PL0 Copyright (c) Steve Scherf et al.
# Submitted via: CDex 1.51
#
DISCID=650b9c09
DTITLE=Neil Ardley - A symphony of amaranths
DYEAR=1971
DGENRE=Jazz
TTITLE0=Intro+
TTITLE1=Carillon+
TTITLE2=Nocturne+
TTITLE3=Entracte+
TTITLE4=Impromptu+
TTITLE5=The Dong with a Luminous Nose
TTITLE6=After Long Silence
TTITLE7=She Weeps over Rahoon
TTITLE8=Will you walk a little faster
EXTD=YEAR: 1971
EXTT0=
EXTT1=
EXTT2=
EXTT3=
EXTT4=
EXTT5=
EXTT6=
EXTT7=
EXTT8=
PLAYORDER=
